<svg width="459" height="469" viewBox="0 0 459 469" fill="none" xmlns="http://www.w3.org/2000/svg">
<g clip-path="url(#clip0_917_134)">
<rect width="459" height="469" fill="#EAF4F4"/>
<path d="M381.689 202.262C381.689 202.262 370.898 210.125 374.004 219.078C377.111 228.03 421.22 220.706 421.22 220.706C421.22 220.706 418.114 208.498 412.523 206.056C406.931 203.615 381.689 202.262 381.689 202.262Z" fill="#F8F9FA"/>
<path d="M377.483 204.359C379.652 202.512 382.063 201.206 384.594 200.507C393.037 197.826 401.877 198.187 410.176 201.552L410.024 201.39C413.559 203.835 416.664 207.225 419.135 211.342L377.483 204.359Z" fill="#CCCCCC"/>
<path d="M425.271 242.859C425.122 245.78 424.973 248.699 424.824 251.616C424.619 257.724 424.111 263.808 423.302 269.83C422.544 274.868 421.338 279.865 419.183 284.154C417.027 288.435 413.827 291.975 410.038 293.277C407.711 294.008 405.292 294.077 402.943 293.48C398.513 290.184 395.513 294.4 399.936 298.689C400.939 299.661 401.983 300.56 403.061 301.383L405.068 341.97L367.792 331.39L375.067 277.399C373.952 276.072 372.933 274.615 372.023 273.045C367.854 265.793 366.419 256.344 366.692 247.278C366.972 238.203 368.817 229.357 370.65 220.608C371.117 218.234 371.681 215.895 372.339 213.601C373.153 214.04 373.98 214.439 374.818 214.772C380.18 216.905 385.877 217.076 391.481 217.068C401.452 217.059 411.411 216.549 421.357 215.538C423.643 220.467 425.031 226.02 425.414 231.766C425.574 235.463 425.527 239.171 425.271 242.859Z" fill="#CCCCCC"/>
<path d="M265.844 353.034L323.23 359.707L323.845 359.781V39.0081C323.64 38.8209 323.435 38.6337 323.23 38.4465C311.27 27.4877 298.332 18.4848 284.705 11.6381L281.773 64.6201L281.506 69.4706L278.604 122.013L277.71 138.176L265.949 351.162L265.844 353.034Z" fill="#D1DFDF"/>
<path d="M123.929 33.0344C123.519 33.3762 123.109 33.718 122.699 34.0761V359.781L123.929 359.634L180.694 353.034L180.588 351.162L168.828 138.176L167.933 122.013L165.032 69.4706L164.765 64.6201L161.689 9.05821C148.428 15.0802 135.754 23.1277 123.929 33.0344Z" fill="#D1DFDF"/>
<path d="M122.699 34.0761C121.873 34.776 121.046 35.4922 120.233 36.2165V364.224C120.233 372.42 123.942 379.289 128.899 381.039C129.709 381.326 130.545 381.471 131.384 381.47H315.775C316.612 381.472 317.445 381.326 318.253 381.039C320.096 380.369 321.766 379.058 323.087 377.246C325.605 373.72 326.981 369.052 326.926 364.224V41.9217C325.907 40.9369 324.882 39.9603 323.845 39.0081C323.64 38.8209 323.435 38.6337 323.23 38.4465V364.224C323.231 365.28 323.135 366.332 322.944 367.358C322.068 372.2 319.179 375.749 315.775 375.749H131.384C127.271 375.749 123.929 370.581 123.929 364.224V33.0344C123.519 33.3762 123.109 33.718 122.699 34.0761Z" fill="#D1DFDF"/>
<path d="M325.078 64.6233H122.079V69.4731H325.078V64.6233Z" fill="#D1DFDF"/>
<path d="M262.905 2.75897C261.675 2.36018 260.445 1.98581 259.202 1.63585V133.326H262.905V2.75897Z" fill="#D1DFDF"/>
<path d="M187.956 1.52588e-05C186.72 0.301141 185.484 0.610397 184.254 0.944077V133.326H187.956V1.52588e-05Z" fill="#D1DFDF"/>
<path d="M82.2798 372.981C82.2789 375.764 82.686 378.522 83.4788 381.104C83.7833 382.105 84.1468 383.074 84.566 384.001C85.1074 385.211 85.7357 386.35 86.4422 387.403C88.003 389.733 89.9254 391.6 92.081 392.878C94.2366 394.157 96.5757 394.818 98.942 394.817H342.048C346.467 394.817 350.705 392.517 353.83 388.424C356.954 384.331 358.71 378.779 358.71 372.99C358.71 367.201 356.954 361.649 353.83 357.555C350.705 353.462 346.467 351.162 342.048 351.162H98.942C94.5253 351.168 90.2907 353.468 87.167 357.559C84.0434 361.649 82.2858 367.196 82.2798 372.981Z" fill="#D1DFDF"/>
<path d="M122.079 138.178L323.844 138.178V122.012L122.079 122.012V138.178Z" fill="#D1DFDF"/>
<path d="M231.6 126.054H214.323C214.323 124.886 214.499 123.73 214.84 122.651C215.181 121.572 215.681 120.592 216.311 119.767C216.941 118.941 217.69 118.286 218.513 117.839C219.337 117.392 220.219 117.162 221.11 117.162H224.813C226.613 117.162 228.339 118.099 229.612 119.767C230.885 121.434 231.6 123.696 231.6 126.054Z" fill="#D1DFDF"/>
<path d="M-1.52588e-05 385.45C5.39704 393.827 11.2346 401.7 17.4698 409.011H441.53C447.765 401.7 453.603 393.827 459 385.45H-1.52588e-05Z" fill="#95B0B1"/>
<path d="M115.033 306.66V390.129H159.67V306.66C159.671 306.06 159.525 305.475 159.253 304.992C158.981 304.508 158.598 304.152 158.161 303.975C157.954 303.885 157.738 303.841 157.521 303.845H117.188C116.906 303.844 116.626 303.916 116.364 304.057C116.103 304.198 115.865 304.406 115.665 304.667C115.465 304.929 115.306 305.239 115.197 305.581C115.089 305.923 115.033 306.29 115.033 306.66ZM132.453 335.341C132.464 333.695 132.972 332.122 133.864 330.964C134.756 329.806 135.962 329.156 137.218 329.156C138.474 329.156 139.679 329.806 140.572 330.964C141.464 332.122 141.971 333.695 141.983 335.341V345.026C141.977 346.676 141.472 348.255 140.579 349.419C139.686 350.583 138.477 351.236 137.218 351.236C135.958 351.236 134.75 350.583 133.857 349.419C132.964 348.255 132.459 346.676 132.453 345.026V335.341Z" fill="#496363"/>
<path d="M114.896 387.46V395.509C114.897 395.926 115.023 396.325 115.248 396.621C115.472 396.917 115.777 397.084 116.095 397.088H158.608C158.927 397.086 159.231 396.918 159.456 396.623C159.681 396.327 159.807 395.926 159.807 395.509V387.46H114.896Z" fill="#95B0B1"/>
<path d="M44.8115 180.904V333.306C44.8127 335.248 45.4022 337.11 46.4505 338.484C47.4988 339.857 48.9203 340.629 50.4029 340.631H222.803C224.285 340.629 225.707 339.857 226.755 338.484C227.804 337.11 228.393 335.248 228.394 333.306V180.904C228.391 178.963 227.8 177.104 226.752 175.732C225.704 174.361 224.284 173.59 222.803 173.587H50.4029C48.9216 173.59 47.5015 174.361 46.4535 175.732C45.4055 177.104 44.8151 178.963 44.8115 180.904Z" fill="#95B0B1"/>
<path d="M48.856 182.8V331.426C48.8573 332.464 49.1726 333.458 49.7327 334.192C50.2928 334.926 51.0521 335.339 51.8442 335.341H221.368C222.16 335.339 222.919 334.926 223.479 334.192C224.039 333.458 224.355 332.464 224.356 331.426V182.8C224.356 181.761 224.041 180.764 223.481 180.029C222.921 179.294 222.161 178.879 221.368 178.877H51.8442C51.0511 178.879 50.2911 179.294 49.7309 180.029C49.1707 180.764 48.856 181.761 48.856 182.8Z" fill="#F8F9FA"/>
<path d="M83.4229 398.984C83.5954 399.267 83.8148 399.496 84.0644 399.652C84.314 399.809 84.5875 399.889 84.8642 399.887H185.72C185.996 399.887 186.268 399.806 186.517 399.65C186.766 399.495 186.985 399.268 187.159 398.988C187.333 398.707 187.456 398.379 187.521 398.028C187.586 397.677 187.59 397.311 187.534 396.958L185.968 387.216C185.903 386.818 185.764 386.449 185.562 386.14C185.36 385.832 185.102 385.594 184.813 385.45C184.603 385.342 184.38 385.287 184.154 385.287H86.4236C86.1982 385.287 85.9748 385.342 85.7651 385.45C85.4753 385.594 85.2177 385.832 85.0159 386.14C84.8141 386.449 84.6744 386.818 84.6095 387.216L83.0439 396.958C82.9882 397.311 82.9933 397.676 83.0589 398.027C83.1244 398.377 83.2488 398.704 83.4229 398.984Z" fill="#496363"/>
<path d="M180.635 389.483H183.135C183.302 389.483 183.438 389.305 183.438 389.086V387.439C183.438 387.219 183.302 387.041 183.135 387.041H180.635C180.467 387.041 180.332 387.219 180.332 387.439V389.086C180.332 389.305 180.467 389.483 180.635 389.483Z" fill="#95B0B1"/>
<path d="M174.422 389.483H176.922C177.089 389.483 177.225 389.305 177.225 389.086V387.439C177.225 387.219 177.089 387.041 176.922 387.041H174.422C174.255 387.041 174.119 387.219 174.119 387.439V389.086C174.119 389.305 174.255 389.483 174.422 389.483Z" fill="#95B0B1"/>
<path d="M168.21 389.483H170.709C170.877 389.483 171.013 389.305 171.013 389.086V387.439C171.013 387.219 170.877 387.041 170.709 387.041H168.21C168.042 387.041 167.906 387.219 167.906 387.439V389.086C167.906 389.305 168.042 389.483 168.21 389.483Z" fill="#95B0B1"/>
<path d="M161.997 389.483H164.497C164.664 389.483 164.8 389.305 164.8 389.086V387.439C164.8 387.219 164.664 387.041 164.497 387.041H161.997C161.83 387.041 161.694 387.219 161.694 387.439V389.086C161.694 389.305 161.83 389.483 161.997 389.483Z" fill="#95B0B1"/>
<path d="M155.784 389.483H158.284C158.452 389.483 158.587 389.305 158.587 389.086V387.439C158.587 387.219 158.452 387.041 158.284 387.041H155.784C155.617 387.041 155.481 387.219 155.481 387.439V389.086C155.481 389.305 155.617 389.483 155.784 389.483Z" fill="#95B0B1"/>
<path d="M149.572 389.483H152.072C152.239 389.483 152.375 389.305 152.375 389.086V387.439C152.375 387.219 152.239 387.041 152.072 387.041H149.572C149.404 387.041 149.269 387.219 149.269 387.439V389.086C149.269 389.305 149.404 389.483 149.572 389.483Z" fill="#95B0B1"/>
<path d="M143.359 389.483H145.859C146.026 389.483 146.162 389.305 146.162 389.086V387.439C146.162 387.219 146.026 387.041 145.859 387.041H143.359C143.192 387.041 143.056 387.219 143.056 387.439V389.086C143.056 389.305 143.192 389.483 143.359 389.483Z" fill="#95B0B1"/>
<path d="M137.147 389.483H139.646C139.814 389.483 139.95 389.305 139.95 389.086V387.439C139.95 387.219 139.814 387.041 139.646 387.041H137.147C136.979 387.041 136.843 387.219 136.843 387.439V389.086C136.843 389.305 136.979 389.483 137.147 389.483Z" fill="#95B0B1"/>
<path d="M130.934 389.483H133.434C133.601 389.483 133.737 389.305 133.737 389.086V387.439C133.737 387.219 133.601 387.041 133.434 387.041H130.934C130.766 387.041 130.631 387.219 130.631 387.439V389.086C130.631 389.305 130.766 389.483 130.934 389.483Z" fill="#95B0B1"/>
<path d="M124.721 389.483H127.221C127.389 389.483 127.524 389.305 127.524 389.086V387.439C127.524 387.219 127.389 387.041 127.221 387.041H124.721C124.554 387.041 124.418 387.219 124.418 387.439V389.086C124.418 389.305 124.554 389.483 124.721 389.483Z" fill="#95B0B1"/>
<path d="M118.509 389.483H121.008C121.176 389.483 121.312 389.305 121.312 389.086V387.439C121.312 387.219 121.176 387.041 121.008 387.041H118.509C118.341 387.041 118.205 387.219 118.205 387.439V389.086C118.205 389.305 118.341 389.483 118.509 389.483Z" fill="#95B0B1"/>
<path d="M112.296 389.483H114.796C114.963 389.483 115.099 389.305 115.099 389.086V387.439C115.099 387.219 114.963 387.041 114.796 387.041H112.296C112.129 387.041 111.993 387.219 111.993 387.439V389.086C111.993 389.305 112.129 389.483 112.296 389.483Z" fill="#95B0B1"/>
<path d="M106.084 389.483H108.583C108.751 389.483 108.887 389.305 108.887 389.086V387.439C108.887 387.219 108.751 387.041 108.583 387.041H106.084C105.916 387.041 105.78 387.219 105.78 387.439V389.086C105.78 389.305 105.916 389.483 106.084 389.483Z" fill="#95B0B1"/>
<path d="M99.8709 389.483H102.371C102.538 389.483 102.674 389.305 102.674 389.086V387.439C102.674 387.219 102.538 387.041 102.371 387.041H99.8709C99.7034 387.041 99.5676 387.219 99.5676 387.439V389.086C99.5676 389.305 99.7034 389.483 99.8709 389.483Z" fill="#95B0B1"/>
<path d="M93.6583 389.483H96.158C96.3255 389.483 96.4613 389.305 96.4613 389.086V387.439C96.4613 387.219 96.3255 387.041 96.158 387.041H93.6583C93.4908 387.041 93.355 387.219 93.355 387.439V389.086C93.355 389.305 93.4908 389.483 93.6583 389.483Z" fill="#95B0B1"/>
<path d="M87.4457 389.483H89.9454C90.1129 389.483 90.2487 389.305 90.2487 389.086V387.439C90.2487 387.219 90.1129 387.041 89.9454 387.041H87.4457C87.2782 387.041 87.1424 387.219 87.1424 387.439V389.086C87.1424 389.305 87.2782 389.483 87.4457 389.483Z" fill="#95B0B1"/>
<path d="M180.708 393.552H183.208C183.375 393.552 183.511 393.374 183.511 393.155V391.508C183.511 391.289 183.375 391.111 183.208 391.111H180.708C180.541 391.111 180.405 391.289 180.405 391.508V393.155C180.405 393.374 180.541 393.552 180.708 393.552Z" fill="#95B0B1"/>
<path d="M174.496 393.552H176.995C177.163 393.552 177.299 393.374 177.299 393.155V391.508C177.299 391.289 177.163 391.111 176.995 391.111H174.496C174.328 391.111 174.192 391.289 174.192 391.508V393.155C174.192 393.374 174.328 393.552 174.496 393.552Z" fill="#95B0B1"/>
<path d="M168.283 393.552H170.783C170.95 393.552 171.086 393.374 171.086 393.155V391.508C171.086 391.289 170.95 391.111 170.783 391.111H168.283C168.116 391.111 167.98 391.289 167.98 391.508V393.155C167.98 393.374 168.116 393.552 168.283 393.552Z" fill="#95B0B1"/>
<path d="M162.07 393.552H164.57C164.738 393.552 164.873 393.374 164.873 393.155V391.508C164.873 391.289 164.738 391.111 164.57 391.111H162.07C161.903 391.111 161.767 391.289 161.767 391.508V393.155C161.767 393.374 161.903 393.552 162.07 393.552Z" fill="#95B0B1"/>
<path d="M155.858 393.552H158.358C158.525 393.552 158.661 393.374 158.661 393.155V391.508C158.661 391.289 158.525 391.111 158.358 391.111H155.858C155.69 391.111 155.555 391.289 155.555 391.508V393.155C155.555 393.374 155.69 393.552 155.858 393.552Z" fill="#95B0B1"/>
<path d="M149.645 393.552H152.145C152.312 393.552 152.448 393.374 152.448 393.155V391.508C152.448 391.289 152.312 391.111 152.145 391.111H149.645C149.478 391.111 149.342 391.289 149.342 391.508V393.155C149.342 393.374 149.478 393.552 149.645 393.552Z" fill="#95B0B1"/>
<path d="M143.433 393.552H145.932C146.1 393.552 146.236 393.374 146.236 393.155V391.508C146.236 391.289 146.1 391.111 145.932 391.111H143.433C143.265 391.111 143.129 391.289 143.129 391.508V393.155C143.129 393.374 143.265 393.552 143.433 393.552Z" fill="#95B0B1"/>
<path d="M137.22 393.552H139.72C139.887 393.552 140.023 393.374 140.023 393.155V391.508C140.023 391.289 139.887 391.111 139.72 391.111H137.22C137.052 391.111 136.917 391.289 136.917 391.508V393.155C136.917 393.374 137.052 393.552 137.22 393.552Z" fill="#95B0B1"/>
<path d="M131.007 393.552H133.507C133.675 393.552 133.81 393.374 133.81 393.155V391.508C133.81 391.289 133.675 391.111 133.507 391.111H131.007C130.84 391.111 130.704 391.289 130.704 391.508V393.155C130.704 393.374 130.84 393.552 131.007 393.552Z" fill="#95B0B1"/>
<path d="M124.795 393.552H127.294C127.462 393.552 127.598 393.374 127.598 393.155V391.508C127.598 391.289 127.462 391.111 127.294 391.111H124.795C124.627 391.111 124.491 391.289 124.491 391.508V393.155C124.491 393.374 124.627 393.552 124.795 393.552Z" fill="#95B0B1"/>
<path d="M118.582 393.552H121.082C121.249 393.552 121.385 393.374 121.385 393.155V391.508C121.385 391.289 121.249 391.111 121.082 391.111H118.582C118.415 391.111 118.279 391.289 118.279 391.508V393.155C118.279 393.374 118.415 393.552 118.582 393.552Z" fill="#95B0B1"/>
<path d="M112.37 393.552H114.869C115.037 393.552 115.173 393.374 115.173 393.155V391.508C115.173 391.289 115.037 391.111 114.869 391.111H112.37C112.202 391.111 112.066 391.289 112.066 391.508V393.155C112.066 393.374 112.202 393.552 112.37 393.552Z" fill="#95B0B1"/>
<path d="M106.157 393.552H108.657C108.824 393.552 108.96 393.374 108.96 393.155V391.508C108.96 391.289 108.824 391.111 108.657 391.111H106.157C105.989 391.111 105.854 391.289 105.854 391.508V393.155C105.854 393.374 105.989 393.552 106.157 393.552Z" fill="#95B0B1"/>
<path d="M99.9443 393.552H102.444C102.612 393.552 102.747 393.374 102.747 393.155V391.508C102.747 391.289 102.612 391.111 102.444 391.111H99.9443C99.7768 391.111 99.641 391.289 99.641 391.508V393.155C99.641 393.374 99.7768 393.552 99.9443 393.552Z" fill="#95B0B1"/>
<path d="M93.7317 393.552H96.2314C96.3989 393.552 96.5347 393.374 96.5347 393.155V391.508C96.5347 391.289 96.3989 391.111 96.2314 391.111H93.7317C93.5642 391.111 93.4284 391.289 93.4284 391.508V393.155C93.4284 393.374 93.5642 393.552 93.7317 393.552Z" fill="#95B0B1"/>
<path d="M87.5191 393.552H90.0188C90.1863 393.552 90.3221 393.374 90.3221 393.155V391.508C90.3221 391.289 90.1863 391.111 90.0188 391.111H87.5191C87.3516 391.111 87.2158 391.289 87.2158 391.508V393.155C87.2158 393.374 87.3516 393.552 87.5191 393.552Z" fill="#95B0B1"/>
<path d="M129.144 398.435H153.387C153.555 398.435 153.691 398.257 153.691 398.038V396.391C153.691 396.172 153.555 395.994 153.387 395.994H129.144C128.976 395.994 128.84 396.172 128.84 396.391V398.038C128.84 398.257 128.976 398.435 129.144 398.435Z" fill="#95B0B1"/>
<path d="M60.3628 199.351H218.985C219.15 199.346 219.307 199.257 219.422 199.103C219.538 198.948 219.602 198.741 219.602 198.525C219.602 198.309 219.538 198.101 219.422 197.947C219.307 197.792 219.15 197.703 218.985 197.698H60.3628C60.198 197.703 60.041 197.792 59.9257 197.947C59.8103 198.101 59.7458 198.309 59.7458 198.525C59.7458 198.741 59.8103 198.948 59.9257 199.103C60.041 199.257 60.198 199.346 60.3628 199.351Z" fill="#95B0B1"/>
<path d="M208.188 193.479C210.229 193.479 211.884 191.263 211.884 188.528C211.884 185.794 210.229 183.578 208.188 183.578C206.146 183.578 204.491 185.794 204.491 188.528C204.491 191.263 206.146 193.479 208.188 193.479Z" fill="#95B0B1"/>
<path d="M195.417 193.479C197.459 193.479 199.114 191.263 199.114 188.528C199.114 185.794 197.459 183.578 195.417 183.578C193.375 183.578 191.72 185.794 191.72 188.528C191.72 191.263 193.375 193.479 195.417 193.479Z" fill="#95B0B1"/>
<path d="M182.646 193.479C184.688 193.479 186.343 191.263 186.343 188.528C186.343 185.794 184.688 183.578 182.646 183.578C180.605 183.578 178.95 185.794 178.95 188.528C178.95 191.263 180.605 193.479 182.646 193.479Z" fill="#95B0B1"/>
<path d="M67.3757 185.705C67.3753 185.822 67.3925 185.938 67.4263 186.047C67.4601 186.155 67.5099 186.254 67.5728 186.337C67.6356 186.42 67.7104 186.486 67.7928 186.531C67.8752 186.577 67.9636 186.6 68.0529 186.601H77.1233C77.3026 186.595 77.4732 186.498 77.5985 186.33C77.7238 186.162 77.794 185.936 77.794 185.701C77.794 185.466 77.7238 185.241 77.5985 185.073C77.4732 184.905 77.3026 184.807 77.1233 184.802H68.0529C67.8718 184.805 67.699 184.901 67.5721 185.071C67.4452 185.24 67.3746 185.468 67.3757 185.705Z" fill="#95B0B1"/>
<path d="M67.3757 189.083C67.3753 189.2 67.3925 189.316 67.4263 189.424C67.4601 189.533 67.5099 189.631 67.5728 189.714C67.6356 189.797 67.7104 189.863 67.7928 189.909C67.8752 189.954 67.9636 189.978 68.0529 189.978H77.1233C77.3028 189.973 77.4735 189.876 77.599 189.708C77.7245 189.54 77.7948 189.314 77.7948 189.079C77.7948 188.844 77.7245 188.618 77.599 188.45C77.4735 188.282 77.3028 188.185 77.1233 188.179H68.0529C67.8718 188.182 67.699 188.279 67.5721 188.448C67.4452 188.617 67.3746 188.846 67.3757 189.083Z" fill="#95B0B1"/>
<path d="M67.3757 192.452C67.3746 192.689 67.4452 192.918 67.5721 193.087C67.699 193.256 67.8718 193.353 68.0529 193.356H77.1233C77.3026 193.35 77.4732 193.253 77.5985 193.085C77.7238 192.917 77.794 192.691 77.794 192.456C77.794 192.221 77.7238 191.996 77.5985 191.828C77.4732 191.66 77.3026 191.562 77.1233 191.557H68.0529C67.9636 191.557 67.8752 191.581 67.7928 191.626C67.7104 191.672 67.6356 191.738 67.5728 191.821C67.5099 191.904 67.4601 192.002 67.4263 192.111C67.3925 192.219 67.3753 192.335 67.3757 192.452Z" fill="#95B0B1"/>
<path d="M70.1789 218.555H66.9197C65.9315 218.555 65.1305 219.605 65.1305 220.899C65.1305 222.194 65.9315 223.243 66.9197 223.243H70.1789C71.1671 223.243 71.9681 222.194 71.9681 220.899C71.9681 219.605 71.1671 218.555 70.1789 218.555Z" fill="#D1DFDF"/>
<path d="M107.455 218.555H104.195C103.207 218.555 102.406 219.605 102.406 220.899C102.406 222.194 103.207 223.243 104.195 223.243H107.455C108.443 223.243 109.244 222.194 109.244 220.899C109.244 219.605 108.443 218.555 107.455 218.555Z" fill="#D1DFDF"/>
<path d="M118.016 218.555H114.757C113.769 218.555 112.968 219.605 112.968 220.899C112.968 222.194 113.769 223.243 114.757 223.243H118.016C119.004 223.243 119.805 222.194 119.805 220.899C119.805 219.605 119.004 218.555 118.016 218.555Z" fill="#D1DFDF"/>
<path d="M97.3155 218.164H77.0588C76.0706 218.164 75.2696 219.214 75.2696 220.508C75.2696 221.803 76.0706 222.852 77.0588 222.852H97.3155C98.3036 222.852 99.1047 221.803 99.1047 220.508C99.1047 219.214 98.3036 218.164 97.3155 218.164Z" fill="#D1DFDF"/>
<path d="M147.016 218.164H126.76C125.772 218.164 124.97 219.214 124.97 220.508C124.97 221.803 125.772 222.852 126.76 222.852H147.016C148.005 222.852 148.806 221.803 148.806 220.508C148.806 219.214 148.005 218.164 147.016 218.164Z" fill="#D1DFDF"/>
<path d="M80.1191 229.135H76.8599C75.8717 229.135 75.0707 230.185 75.0707 231.479C75.0707 232.774 75.8717 233.823 76.8599 233.823H80.1191C81.1073 233.823 81.9083 232.774 81.9083 231.479C81.9083 230.185 81.1073 229.135 80.1191 229.135Z" fill="#D1DFDF"/>
<path d="M117.395 229.135H114.136C113.147 229.135 112.346 230.185 112.346 231.479C112.346 232.774 113.147 233.823 114.136 233.823H117.395C118.383 233.823 119.184 232.774 119.184 231.479C119.184 230.185 118.383 229.135 117.395 229.135Z" fill="#D1DFDF"/>
<path d="M127.956 229.135H124.697C123.709 229.135 122.908 230.185 122.908 231.479C122.908 232.774 123.709 233.823 124.697 233.823H127.956C128.944 233.823 129.745 232.774 129.745 231.479C129.745 230.185 128.944 229.135 127.956 229.135Z" fill="#D1DFDF"/>
<path d="M107.256 228.745H86.999C86.0108 228.745 85.2098 229.794 85.2098 231.088C85.2098 232.383 86.0108 233.432 86.999 233.432H107.256C108.244 233.432 109.045 232.383 109.045 231.088C109.045 229.794 108.244 228.745 107.256 228.745Z" fill="#D1DFDF"/>
<path d="M156.957 228.745H136.7C135.712 228.745 134.911 229.794 134.911 231.088C134.911 232.383 135.712 233.432 136.7 233.432H156.957C157.945 233.432 158.746 232.383 158.746 231.088C158.746 229.794 157.945 228.745 156.957 228.745Z" fill="#D1DFDF"/>
<path d="M90.0593 239.715H86.8C85.8119 239.715 85.0108 240.765 85.0108 242.059C85.0108 243.354 85.8119 244.403 86.8 244.403H90.0593C91.0474 244.403 91.8485 243.354 91.8485 242.059C91.8485 240.765 91.0474 239.715 90.0593 239.715Z" fill="#D1DFDF"/>
<path d="M127.335 239.715H124.076C123.088 239.715 122.286 240.765 122.286 242.059C122.286 243.354 123.088 244.403 124.076 244.403H127.335C128.323 244.403 129.124 243.354 129.124 242.059C129.124 240.765 128.323 239.715 127.335 239.715Z" fill="#D1DFDF"/>
<path d="M137.896 239.715H134.637C133.649 239.715 132.848 240.765 132.848 242.059C132.848 243.354 133.649 244.403 134.637 244.403H137.896C138.885 244.403 139.686 243.354 139.686 242.059C139.686 240.765 138.885 239.715 137.896 239.715Z" fill="#D1DFDF"/>
<path d="M117.196 239.325H96.9391C95.951 239.325 95.1499 240.374 95.1499 241.669C95.1499 242.963 95.951 244.012 96.9391 244.012H117.196C118.184 244.012 118.985 242.963 118.985 241.669C118.985 240.374 118.184 239.325 117.196 239.325Z" fill="#D1DFDF"/>
<path d="M166.897 239.325H146.64C145.652 239.325 144.851 240.374 144.851 241.669C144.851 242.963 145.652 244.012 146.64 244.012H166.897C167.885 244.012 168.686 242.963 168.686 241.669C168.686 240.374 167.885 239.325 166.897 239.325Z" fill="#D1DFDF"/>
<path d="M99.9995 250.296H96.7402C95.7521 250.296 94.951 251.345 94.951 252.639C94.951 253.934 95.7521 254.983 96.7402 254.983H99.9995C100.988 254.983 101.789 253.934 101.789 252.639C101.789 251.345 100.988 250.296 99.9995 250.296Z" fill="#D1DFDF"/>
<path d="M137.275 250.296H134.016C133.028 250.296 132.227 251.345 132.227 252.639C132.227 253.934 133.028 254.983 134.016 254.983H137.275C138.263 254.983 139.064 253.934 139.064 252.639C139.064 251.345 138.263 250.296 137.275 250.296Z" fill="#D1DFDF"/>
<path d="M147.837 250.296H144.577C143.589 250.296 142.788 251.345 142.788 252.639C142.788 253.934 143.589 254.983 144.577 254.983H147.837C148.825 254.983 149.626 253.934 149.626 252.639C149.626 251.345 148.825 250.296 147.837 250.296Z" fill="#D1DFDF"/>
<path d="M127.136 249.905H106.879C105.891 249.905 105.09 250.954 105.09 252.249C105.09 253.543 105.891 254.592 106.879 254.592H127.136C128.124 254.592 128.925 253.543 128.925 252.249C128.925 250.954 128.124 249.905 127.136 249.905Z" fill="#D1DFDF"/>
<path d="M107.455 292.367H104.195C103.207 292.367 102.406 293.416 102.406 294.71C102.406 296.005 103.207 297.054 104.195 297.054H107.455C108.443 297.054 109.244 296.005 109.244 294.71C109.244 293.416 108.443 292.367 107.455 292.367Z" fill="#D1DFDF"/>
<path d="M118.016 292.367H114.757C113.769 292.367 112.968 293.416 112.968 294.71C112.968 296.005 113.769 297.054 114.757 297.054H118.016C119.004 297.054 119.805 296.005 119.805 294.71C119.805 293.416 119.004 292.367 118.016 292.367Z" fill="#D1DFDF"/>
<path d="M147.016 292.757H126.76C125.772 292.757 124.97 293.807 124.97 295.101C124.97 296.396 125.772 297.445 126.76 297.445H147.016C148.005 297.445 148.806 296.396 148.806 295.101C148.806 293.807 148.005 292.757 147.016 292.757Z" fill="#D1DFDF"/>
<path d="M70.1789 292.367H66.9197C65.9315 292.367 65.1305 293.416 65.1305 294.71C65.1305 296.005 65.9315 297.054 66.9197 297.054H70.1789C71.1671 297.054 71.9681 296.005 71.9681 294.71C71.9681 293.416 71.1671 292.367 70.1789 292.367Z" fill="#D1DFDF"/>
<path d="M97.3155 292.757H77.0588C76.0706 292.757 75.2696 293.807 75.2696 295.101C75.2696 296.396 76.0706 297.445 77.0588 297.445H97.3155C98.3036 297.445 99.1047 296.396 99.1047 295.101C99.1047 293.807 98.3036 292.757 97.3155 292.757Z" fill="#D1DFDF"/>
<path d="M80.1191 281.786H76.8599C75.8717 281.786 75.0707 282.836 75.0707 284.13C75.0707 285.425 75.8717 286.474 76.8599 286.474H80.1191C81.1073 286.474 81.9083 285.425 81.9083 284.13C81.9083 282.836 81.1073 281.786 80.1191 281.786Z" fill="#D1DFDF"/>
<path d="M117.395 281.786H114.136C113.147 281.786 112.346 282.836 112.346 284.13C112.346 285.425 113.147 286.474 114.136 286.474H117.395C118.383 286.474 119.184 285.425 119.184 284.13C119.184 282.836 118.383 281.786 117.395 281.786Z" fill="#D1DFDF"/>
<path d="M127.956 281.786H124.697C123.709 281.786 122.908 282.836 122.908 284.13C122.908 285.425 123.709 286.474 124.697 286.474H127.956C128.944 286.474 129.745 285.425 129.745 284.13C129.745 282.836 128.944 281.786 127.956 281.786Z" fill="#D1DFDF"/>
<path d="M107.256 282.177H86.999C86.0108 282.177 85.2098 283.227 85.2098 284.521C85.2098 285.816 86.0108 286.865 86.999 286.865H107.256C108.244 286.865 109.045 285.816 109.045 284.521C109.045 283.227 108.244 282.177 107.256 282.177Z" fill="#D1DFDF"/>
<path d="M90.0593 271.206H86.8C85.8119 271.206 85.0108 272.256 85.0108 273.55C85.0108 274.845 85.8119 275.894 86.8 275.894H90.0593C91.0474 275.894 91.8485 274.845 91.8485 273.55C91.8485 272.256 91.0474 271.206 90.0593 271.206Z" fill="#D1DFDF"/>
<path d="M127.335 271.206H124.076C123.088 271.206 122.286 272.256 122.286 273.55C122.286 274.845 123.088 275.894 124.076 275.894H127.335C128.323 275.894 129.124 274.845 129.124 273.55C129.124 272.256 128.323 271.206 127.335 271.206Z" fill="#D1DFDF"/>
<path d="M137.896 271.206H134.637C133.649 271.206 132.848 272.256 132.848 273.55C132.848 274.845 133.649 275.894 134.637 275.894H137.896C138.885 275.894 139.686 274.845 139.686 273.55C139.686 272.256 138.885 271.206 137.896 271.206Z" fill="#D1DFDF"/>
<path d="M117.196 271.597H96.9391C95.951 271.597 95.1499 272.647 95.1499 273.941C95.1499 275.235 95.951 276.285 96.9391 276.285H117.196C118.184 276.285 118.985 275.235 118.985 273.941C118.985 272.647 118.184 271.597 117.196 271.597Z" fill="#D1DFDF"/>
<path d="M99.9995 260.626H96.7402C95.7521 260.626 94.951 261.676 94.951 262.97C94.951 264.265 95.7521 265.314 96.7402 265.314H99.9995C100.988 265.314 101.789 264.265 101.789 262.97C101.789 261.676 100.988 260.626 99.9995 260.626Z" fill="#D1DFDF"/>
<path d="M137.275 260.626H134.016C133.028 260.626 132.227 261.676 132.227 262.97C132.227 264.265 133.028 265.314 134.016 265.314H137.275C138.263 265.314 139.064 264.265 139.064 262.97C139.064 261.676 138.263 260.626 137.275 260.626Z" fill="#D1DFDF"/>
<path d="M147.837 260.626H144.577C143.589 260.626 142.788 261.676 142.788 262.97C142.788 264.265 143.589 265.314 144.577 265.314H147.837C148.825 265.314 149.626 264.265 149.626 262.97C149.626 261.676 148.825 260.626 147.837 260.626Z" fill="#D1DFDF"/>
<path d="M127.136 261.017H106.879C105.891 261.017 105.09 262.066 105.09 263.361C105.09 264.655 105.891 265.705 106.879 265.705H127.136C128.124 265.705 128.925 264.655 128.925 263.361C128.925 262.066 128.124 261.017 127.136 261.017Z" fill="#D1DFDF"/>
<path d="M58.4606 445.211C58.8396 445.463 59.2248 445.716 59.6038 445.96C69.4197 452.389 77.2724 456.043 88.014 460.048C88.9211 446.782 89.7971 423.465 90.6482 409.011C90.8718 405.259 91.0955 402.109 91.3129 399.887C91.3678 398.706 91.5519 397.541 91.8596 396.429L91.8224 399.887L91.7292 409.011L91.1887 461.187C104.55 465.818 118.276 468.41 132.092 468.91C132.813 468.935 133.521 468.951 134.205 468.967C134.447 468.976 134.683 468.984 134.919 468.984C135.696 468.992 136.466 469 137.243 469C151.803 469.014 166.31 466.71 180.445 462.139C180.141 449.012 179.836 425.955 179.544 409.011C179.482 405.698 179.426 402.614 179.364 399.887C179.246 394.06 179.122 389.861 179.004 388.453C179.109 388.702 179.19 388.967 179.246 389.242C179.822 392.752 180.214 396.308 180.42 399.887C180.638 402.614 180.855 405.698 181.073 409.011C182.228 426.614 183.433 450.55 184.676 460.699C192.072 458.054 199.329 454.783 206.402 450.908C210.129 448.873 213.79 446.679 217.385 444.324C216.702 438.464 215.988 431.896 215.255 425.084C214.683 419.802 214.093 414.374 213.49 409.011C212.558 400.726 198.71 342.828 197.834 340.631C197.083 338.751 196.368 336.976 195.691 335.341C194.051 331.369 192.659 328.203 191.628 326.201C187.316 317.633 180.898 311.255 173.437 308.125L173.251 308.06L173.121 308.133L160.416 303.022L158.558 302.274L157.31 301.769L152.911 297.382L150.519 294.998L148.276 292.76L143.89 288.389L116.735 290.579L111.448 307.254L99.6068 312.927L99.4018 312.805L99.2216 312.707L99.0353 312.772C91.5762 315.905 85.1582 322.283 80.8447 330.848C80.2608 331.996 79.5525 333.509 78.7511 335.341C78.0677 336.895 77.3222 338.669 76.5145 340.631C75.3652 343.422 74.1103 346.572 72.7808 349.982C72.4888 350.731 72.1906 351.496 71.8924 352.269C71.3394 353.701 70.7782 355.163 70.2088 356.655C68.8855 360.114 67.5187 363.728 66.1519 367.398C64.9653 370.58 63.7663 377.124 62.5859 385.45C61.6105 392.367 60.6413 400.522 59.7032 409.011C58.4731 420.014 59.784 433.19 58.6719 443.315C58.6035 443.958 58.529 444.584 58.4606 445.211Z" fill="#95B0B1"/>
<path opacity="0.2" d="M188.609 385.414L183.33 358.726L178.668 381.755L188.609 385.414Z" fill="black"/>
<path d="M48.1353 368.025C50.0239 402.109 48.0669 417.117 58.4917 445.219C67.9767 451.301 77.8566 456.263 88.014 460.048C89.0702 460.438 90.1284 460.818 91.1887 461.187C104.55 465.818 118.276 468.41 132.092 468.91C132.813 468.935 133.521 468.951 134.205 468.967C134.447 468.976 134.683 468.984 134.919 468.984C135.696 468.992 136.466 469 137.243 469C151.803 469.014 166.31 466.71 180.445 462.139C181.862 461.683 183.272 461.203 184.676 460.699C192.072 458.054 199.329 454.783 206.402 450.908C210.129 448.873 213.79 446.679 217.385 444.324C218.199 443.787 219.013 443.25 219.815 442.696C223.933 433.207 226.276 421.666 226.325 407.798C223.474 383.903 54.4349 347.418 48.1353 368.025Z" fill="#496363"/>
<path opacity="0.2" d="M48.1402 373.862C48.0437 371.752 47.9359 369.572 47.8101 367.303C54.1097 346.696 223.149 383.181 226 407.076C225.992 409.266 225.921 411.392 225.801 413.468C218.895 389.884 58.3057 355.207 48.1402 373.862Z" fill="black"/>
<path d="M9.83412 385.104C10.1078 386.148 10.627 387.052 11.3172 387.685C12.0074 388.318 12.833 388.649 13.6755 388.629L30.1338 388.074C30.9824 388.053 31.803 387.672 32.4727 386.989C33.1424 386.306 33.6254 385.357 33.8494 384.284L36.1785 351.659C37.0048 352.149 37.9044 352.392 38.8113 352.368C40.402 352.314 41.9113 351.435 43.0075 349.924C44.1036 348.413 44.697 346.394 44.657 344.31C44.6171 342.226 43.9472 340.249 42.7945 338.812C41.6419 337.375 40.1008 336.596 38.5101 336.647C38.1476 336.645 37.786 336.695 37.4315 336.794C37.0459 336.247 36.5773 335.813 36.0558 335.518C35.5342 335.223 34.9714 335.075 34.4034 335.082L9.08669 335.939C8.87668 335.949 8.66774 335.983 8.46221 336.04C7.90701 336.176 7.38043 336.466 6.9179 336.89C6.45537 337.315 6.06764 337.864 5.78078 338.501C5.49393 339.139 5.31463 339.849 5.25493 340.585C5.19523 341.321 5.25652 342.064 5.43469 342.767L9.83412 385.104ZM36.6561 349.444L38.3134 341.669C38.5019 340.771 38.5063 339.824 38.3261 338.923C38.4065 338.923 38.4774 338.873 38.5578 338.872C39.6942 338.842 40.7935 339.402 41.6147 340.432C42.4359 341.461 42.912 342.875 42.9386 344.364C42.9652 345.852 42.5402 347.294 41.7566 348.372C40.9731 349.451 39.8951 350.079 38.7588 350.118C38.0242 350.148 37.2972 349.915 36.6561 349.444Z" fill="#496363"/>
<path d="M8.46223 336.04C9.0016 340.08 15.0657 342.92 22.3573 342.427C29.0624 342.022 34.5448 338.938 35.5493 335.282C35.1775 335.138 34.791 335.071 34.4034 335.082L9.08672 335.939C8.87671 335.949 8.66777 335.983 8.46223 336.04Z" fill="#95B0B1"/>
<path d="M23.6936 367.177C23.727 367.166 23.7586 367.147 23.7874 367.123L27.3616 364.058C27.4048 364.021 27.4403 363.971 27.4649 363.911C27.4895 363.852 27.5024 363.785 27.5024 363.718C27.5024 363.65 27.4895 363.584 27.465 363.524C27.4404 363.465 27.405 363.414 27.3618 363.377L23.6468 360.19C23.6127 360.16 23.5745 360.14 23.5343 360.13C23.4942 360.119 23.4529 360.12 23.4129 360.13C23.3728 360.141 23.3348 360.162 23.301 360.192C23.2672 360.223 23.2382 360.261 23.2158 360.306C23.1934 360.351 23.178 360.401 23.1704 360.453C23.1628 360.506 23.1632 360.56 23.1717 360.613C23.1801 360.665 23.1963 360.715 23.2194 360.759C23.2425 360.803 23.2721 360.841 23.3064 360.87L26.6245 363.717L23.4474 366.442C23.3858 366.494 23.3406 366.574 23.3196 366.666C23.2987 366.759 23.3034 366.858 23.3329 366.946C23.3625 367.034 23.4149 367.105 23.481 367.148C23.547 367.19 23.6224 367.2 23.6936 367.177Z" fill="#F8F9FA"/>
<path d="M18.0484 367.518C18.1083 367.498 18.1624 367.455 18.2037 367.394C18.2449 367.334 18.2715 367.259 18.2799 367.179C18.2883 367.098 18.2782 367.016 18.2509 366.944C18.2236 366.871 18.1804 366.811 18.1267 366.77L14.8321 364.296L18.0165 361.197C18.0492 361.165 18.0768 361.125 18.0977 361.08C18.1186 361.034 18.1325 360.983 18.1384 360.93C18.1443 360.877 18.1423 360.824 18.1324 360.772C18.1224 360.72 18.1048 360.671 18.0805 360.628C18.0561 360.585 18.0256 360.549 17.9907 360.522C17.9557 360.494 17.9169 360.476 17.8766 360.469C17.8362 360.461 17.7951 360.464 17.7556 360.477C17.7161 360.49 17.6789 360.513 17.6462 360.545L14.081 364.014C14.0396 364.054 14.0064 364.107 13.9846 364.168C13.9628 364.229 13.9529 364.297 13.956 364.364C13.959 364.432 13.9748 364.497 14.002 364.554C14.0291 364.612 14.0668 364.659 14.1115 364.693L17.8175 367.476C17.8874 367.529 17.9702 367.544 18.0484 367.518Z" fill="#F8F9FA"/>
<path d="M23.3381 369.862C23.3682 369.853 23.3969 369.837 23.4232 369.815C23.4581 369.788 23.4885 369.751 23.5126 369.708C23.5367 369.665 23.5541 369.616 23.5637 369.564C23.5734 369.512 23.5752 369.458 23.5689 369.405C23.5626 369.352 23.5485 369.302 23.5273 369.256L18.4606 358.344C18.4175 358.252 18.3485 358.186 18.2686 358.161C18.1887 358.136 18.1044 358.153 18.0342 358.209C17.964 358.265 17.9136 358.355 17.8941 358.46C17.8745 358.565 17.8873 358.675 17.9298 358.767L22.9965 369.68C23.031 369.754 23.0829 369.812 23.1443 369.845C23.2058 369.877 23.2737 369.884 23.3381 369.862Z" fill="#F8F9FA"/>
<path d="M416.871 324.065H361.579V387.546H416.871V324.065Z" fill="#95B0B1"/>
<path d="M425.067 235.396C424.042 243.354 424.942 251.533 427.642 258.788C428.641 261.456 429.878 264.671 428.662 267.179C428.32 267.806 427.876 268.326 427.362 268.699C426.848 269.072 426.276 269.29 425.689 269.337C424.515 269.419 423.34 269.219 422.221 268.749" fill="#CCCCCC"/>
<path d="M376.489 210.939C377.519 210.939 378.353 210.028 378.353 208.905C378.353 207.781 377.519 206.87 376.489 206.87C375.46 206.87 374.626 207.781 374.626 208.905C374.626 210.028 375.46 210.939 376.489 210.939Z" fill="#95B0B1"/>
<path d="M383.323 211.753C384.353 211.753 385.187 210.842 385.187 209.719C385.187 208.595 384.353 207.684 383.323 207.684C382.294 207.684 381.46 208.595 381.46 209.719C381.46 210.842 382.294 211.753 383.323 211.753Z" fill="#95B0B1"/>
<path d="M390.157 215.822C391.187 215.822 392.021 214.912 392.021 213.788C392.021 212.664 391.187 211.753 390.157 211.753C389.128 211.753 388.293 212.664 388.293 213.788C388.293 214.912 389.128 215.822 390.157 215.822Z" fill="#95B0B1"/>
<path d="M398.234 213.381C399.263 213.381 400.097 212.47 400.097 211.346C400.097 210.223 399.263 209.312 398.234 209.312C397.204 209.312 396.37 210.223 396.37 211.346C396.37 212.47 397.204 213.381 398.234 213.381Z" fill="#95B0B1"/>
<path d="M228.583 251.944C237.635 248.652 247.717 252.18 254.712 260.261C258.486 264.652 261.256 270.328 262.713 276.659C264.499 284.194 264.795 292.143 264.982 299.976C265.188 308.636 265.368 317.298 265.561 325.96C265.744 334.218 265.766 342.515 266.186 350.76C266.539 357.678 267.385 364.86 270.211 370.86C272.831 376.423 276.971 380.179 281.65 382.25C286.392 384.348 291.503 384.837 296.478 384.794C302.267 384.77 308.046 384.17 313.766 383.001C324.63 380.721 335.361 374.906 341.996 362.908C345.051 357.46 346.768 350.923 346.918 344.166C347.058 336.292 345.137 328.666 343.034 321.393C340.987 314.316 338.773 307.343 337.477 299.943C336.274 293.018 335.701 285.931 335.769 278.83C335.88 264.622 338.479 250.638 343.367 237.954C345.84 231.44 348.978 225.396 352.694 219.988C356.526 214.526 361.272 210.016 366.915 208.538C369.669 207.791 372.52 207.941 375.22 208.975C376.371 209.427 376.863 207.071 375.715 206.621C370.125 204.428 364.052 206.096 359.095 209.901C354.222 213.644 350.371 219.257 347.103 225.21C340.823 236.879 336.642 250.261 334.874 264.35C333.107 278.439 333.798 292.87 336.896 306.559C340.213 320.792 347.427 335.608 344.327 351.012C341.615 364.495 332.218 373.658 322.511 377.797C316.622 380.308 310.447 381.37 304.288 381.92C299.084 382.384 293.808 382.68 288.619 381.803C283.852 380.999 278.949 379.09 275.253 374.898C271.202 370.304 269.35 363.701 268.545 356.926C267.633 349.26 267.767 341.354 267.595 333.619L267.008 307.215C266.676 292.302 266.962 275.775 259.555 263.418C256.594 258.603 252.834 254.736 248.56 252.112C244.287 249.487 239.613 248.174 234.893 248.272C232.592 248.342 230.306 248.784 228.088 249.59C227.857 249.684 227.663 249.893 227.548 250.171C227.432 250.449 227.403 250.775 227.467 251.08C227.532 251.385 227.684 251.646 227.892 251.807C228.1 251.968 228.348 252.017 228.583 251.944Z" fill="#95B0B1"/>
<path d="M96.2746 236.498C97.5939 248.795 102.586 259.904 110.154 267.382C117.722 274.861 127.246 278.098 136.635 276.382C146.024 274.666 154.508 268.138 160.225 258.231C165.941 248.325 168.422 235.851 167.121 223.55L167.051 222.885C165.538 210.75 160.444 199.88 152.869 192.621C145.293 185.361 135.843 182.294 126.556 184.08C117.27 185.866 108.891 192.363 103.228 202.169C97.5654 211.974 95.0718 224.303 96.2855 236.496L96.2746 236.498Z" fill="#FFB6B6"/>
<path d="M127.805 275.241C125.955 270.361 124.055 265.122 124.558 259.714C125.06 254.306 129.093 249.121 133.071 250.71C135.45 251.661 137.254 254.727 139.738 254.873C143.156 255.074 145.103 249.942 146.155 245.677L150.443 228.307C158.715 236.819 148.24 227.896 158.485 224.78C162.505 223.557 166.562 221.19 168.911 216.746C171.259 212.301 171.227 205.422 167.982 202.083C166.391 200.446 164.277 199.83 162.756 198.082C161.813 196.998 161.161 195.545 160.897 193.937C160.633 192.33 160.771 190.654 161.29 189.157C161.81 187.66 162.684 186.423 163.782 185.627C164.88 184.831 166.145 184.52 167.389 184.739L156.476 183.001L159.706 175.286C157.371 177.714 154.112 178.054 151.175 177.375C148.239 176.695 145.47 175.124 142.597 174.081C128.8 169.074 112.803 177.956 105.956 194.426C103.269 193.264 100.375 193.198 97.6588 194.239C94.9424 195.279 92.5314 197.376 90.7453 200.252C87.8375 205.12 87.0599 211.603 86.9625 217.783C86.7813 229.969 88.8401 242.033 92.9654 252.957C94.2512 256.352 95.7709 259.682 97.9563 262.166C100.142 264.649 124.839 278.406 127.689 277.757" fill="#496363"/>
<path d="M385.808 243.087C385.813 245.199 385.607 247.303 385.193 249.345V249.353C385.187 249.394 385.175 249.435 385.168 249.475C383.914 255.522 380.919 259.771 377.421 259.771C373.942 259.771 370.96 255.555 369.687 249.557C369.6 249.142 369.525 248.727 369.457 248.295C369.37 247.815 369.301 247.319 369.246 246.806C369.196 246.399 369.159 245.984 369.128 245.561C369.084 244.975 369.053 244.389 369.047 243.778V243.77C369.034 243.542 369.034 243.314 369.034 243.087V242.883L369.041 242.875C369.041 241.843 369.093 240.813 369.196 239.79C369.239 239.359 369.289 238.944 369.351 238.529C369.426 238.024 369.506 237.528 369.606 237.04C369.687 236.608 369.78 236.193 369.879 235.778C370.016 235.225 370.165 234.688 370.333 234.175C370.438 233.841 370.55 233.516 370.662 233.198C372.19 229.08 374.651 226.403 377.421 226.403C381.255 226.403 384.485 231.522 385.485 238.505C385.498 238.61 385.516 238.716 385.523 238.822V238.83C385.714 240.235 385.81 241.659 385.808 243.087Z" fill="#D1DFDF"/>
<path d="M370.742 233.556C370.738 233.706 370.696 233.849 370.621 233.961C370.547 234.074 370.445 234.149 370.333 234.175C370.438 233.841 370.55 233.516 370.661 233.198C370.713 233.305 370.741 233.429 370.742 233.556Z" fill="#F8F9FA"/>
<path d="M378.088 232.815H372.621C372.354 232.815 372.138 233.098 372.138 233.448C372.138 233.797 372.354 234.08 372.621 234.08H378.088C378.355 234.08 378.571 233.797 378.571 233.448C378.571 233.098 378.355 232.815 378.088 232.815Z" fill="#F8F9FA"/>
<path d="M370.575 236.405C370.575 236.573 370.524 236.734 370.433 236.853C370.342 236.972 370.219 237.039 370.09 237.04H369.606C369.687 236.608 369.78 236.193 369.879 235.778H370.09C370.218 235.778 370.34 235.844 370.431 235.961C370.522 236.078 370.574 236.238 370.575 236.405Z" fill="#F8F9FA"/>
<path d="M372.944 235.776H372.064C371.798 235.776 371.581 236.059 371.581 236.409C371.581 236.758 371.798 237.041 372.064 237.041H372.944C373.211 237.041 373.427 236.758 373.427 236.409C373.427 236.059 373.211 235.776 372.944 235.776Z" fill="#F8F9FA"/>
<path d="M380.771 235.671H375.304C375.037 235.671 374.821 235.954 374.821 236.303C374.821 236.652 375.037 236.936 375.304 236.936H380.771C381.037 236.936 381.254 236.652 381.254 236.303C381.254 235.954 381.037 235.671 380.771 235.671Z" fill="#F8F9FA"/>
<path d="M372.776 238.631H371.896C371.63 238.631 371.414 238.915 371.414 239.264C371.414 239.613 371.63 239.897 371.896 239.897H372.776C373.043 239.897 373.259 239.613 373.259 239.264C373.259 238.915 373.043 238.631 372.776 238.631Z" fill="#F8F9FA"/>
<path d="M375.627 238.631H374.747C374.48 238.631 374.264 238.915 374.264 239.264C374.264 239.613 374.48 239.897 374.747 239.897H375.627C375.893 239.897 376.109 239.613 376.109 239.264C376.109 238.915 375.893 238.631 375.627 238.631Z" fill="#F8F9FA"/>
<path d="M370.525 239.156C370.525 239.324 370.474 239.485 370.383 239.604C370.292 239.723 370.169 239.79 370.041 239.79H369.196C369.239 239.359 369.289 238.944 369.351 238.529H370.041C370.104 238.528 370.167 238.544 370.226 238.575C370.284 238.606 370.338 238.652 370.383 238.71C370.428 238.768 370.463 238.838 370.488 238.914C370.512 238.991 370.525 239.073 370.525 239.156Z" fill="#F8F9FA"/>
<path d="M383.453 238.526H377.986C377.72 238.526 377.503 238.809 377.503 239.159C377.503 239.508 377.72 239.791 377.986 239.791H383.453C383.72 239.791 383.936 239.508 383.936 239.159C383.936 238.809 383.72 238.526 383.453 238.526Z" fill="#F8F9FA"/>
<path d="M370.743 243.323C370.743 243.405 370.73 243.488 370.705 243.564C370.681 243.64 370.645 243.71 370.6 243.768C370.555 243.826 370.502 243.872 370.443 243.903C370.384 243.934 370.321 243.95 370.258 243.949H369.382C369.258 243.95 369.138 243.889 369.047 243.778V243.77C369.034 243.542 369.034 243.314 369.034 243.087V242.883L369.041 242.875C369.085 242.816 369.138 242.768 369.197 242.736C369.256 242.704 369.319 242.688 369.382 242.688H370.258C370.387 242.688 370.51 242.755 370.601 242.874C370.691 242.993 370.743 243.154 370.743 243.323Z" fill="#CCCCCC"/>
<path d="M378.088 242.581H372.621C372.354 242.581 372.138 242.865 372.138 243.214C372.138 243.563 372.354 243.847 372.621 243.847H378.088C378.355 243.847 378.571 243.563 378.571 243.214C378.571 242.865 378.355 242.581 378.088 242.581Z" fill="#CCCCCC"/>
<path d="M370.575 246.171C370.575 246.339 370.524 246.501 370.433 246.62C370.342 246.739 370.219 246.806 370.091 246.806H369.246C369.196 246.399 369.159 245.984 369.128 245.561C369.155 245.547 369.185 245.542 369.215 245.544H370.09C370.218 245.544 370.34 245.61 370.431 245.727C370.522 245.845 370.574 246.004 370.575 246.171Z" fill="#CCCCCC"/>
<path d="M372.944 245.542H372.064C371.798 245.542 371.581 245.825 371.581 246.175C371.581 246.524 371.798 246.807 372.064 246.807H372.944C373.211 246.807 373.427 246.524 373.427 246.175C373.427 245.825 373.211 245.542 372.944 245.542Z" fill="#CCCCCC"/>
<path d="M380.771 245.437H375.304C375.037 245.437 374.821 245.72 374.821 246.069C374.821 246.419 375.037 246.702 375.304 246.702H380.771C381.037 246.702 381.254 246.419 381.254 246.069C381.254 245.72 381.037 245.437 380.771 245.437Z" fill="#CCCCCC"/>
<path d="M372.776 248.398H371.896C371.63 248.398 371.414 248.681 371.414 249.03C371.414 249.38 371.63 249.663 371.896 249.663H372.776C373.043 249.663 373.259 249.38 373.259 249.03C373.259 248.681 373.043 248.398 372.776 248.398Z" fill="#CCCCCC"/>
<path d="M375.627 248.398H374.747C374.48 248.398 374.264 248.681 374.264 249.03C374.264 249.38 374.48 249.663 374.747 249.663H375.627C375.893 249.663 376.109 249.38 376.109 249.03C376.109 248.681 375.893 248.398 375.627 248.398Z" fill="#CCCCCC"/>
<path d="M370.525 248.922C370.525 249.09 370.474 249.252 370.383 249.371C370.292 249.49 370.169 249.556 370.041 249.557H369.687C369.6 249.142 369.525 248.727 369.457 248.295H370.041C370.104 248.294 370.167 248.31 370.225 248.341C370.284 248.372 370.338 248.418 370.383 248.477C370.428 248.535 370.463 248.604 370.488 248.681C370.512 248.757 370.525 248.839 370.525 248.922Z" fill="#CCCCCC"/>
<path d="M383.453 248.292H377.986C377.72 248.292 377.503 248.575 377.503 248.925C377.503 249.274 377.72 249.557 377.986 249.557H383.453C383.72 249.557 383.936 249.274 383.936 248.925C383.936 248.575 383.72 248.292 383.453 248.292Z" fill="#CCCCCC"/>
</g>
<defs>
<clipPath id="clip0_917_134">
<rect width="459" height="469" fill="white"/>
</clipPath>
</defs>
</svg>
